<?xml version="1.0" encoding="UTF-8" standalone="no"?>
<!DOCTYPE svg PUBLIC "-//W3C//DTD SVG 1.1//EN" "http://www.w3.org/Graphics/SVG/1.1/DTD/svg11.dtd">
<svg version="1.1" xmlns="http://www.w3.org/2000/svg" xmlns:xlink="http://www.w3.org/1999/xlink" preserveAspectRatio="xMidYMid meet" viewBox="0 0 640 640" width="640" height="640"><defs><path d="M343.29 262.57C345.05 262.57 346.47 264 346.47 265.75C346.47 277.92 346.47 311.22 346.47 323.39C346.47 325.14 345.05 326.57 343.29 326.57C331.13 326.57 297.82 326.57 285.66 326.57C283.9 326.57 282.47 325.14 282.47 323.39C282.47 311.22 282.47 277.92 282.47 265.75C282.47 264 283.9 262.57 285.66 262.57C297.82 262.57 331.13 262.57 343.29 262.57Z" id="dRBKiY9YG"></path><path d="M341.87 266.5C343.26 266.5 344.37 267.62 344.37 269C344.37 271.74 344.37 277.46 344.37 280.2C344.37 281.58 343.26 282.7 341.87 282.7C330.42 282.7 298.53 282.7 287.07 282.7C285.69 282.7 284.57 281.58 284.57 280.2C284.57 277.46 284.57 271.74 284.57 269C284.57 267.62 285.69 266.5 287.07 266.5C298.53 266.5 330.42 266.5 341.87 266.5Z" id="boFBL9eyU"></path><path d="M341.87 285.3C343.26 285.3 344.37 286.42 344.37 287.8C344.37 294.68 344.37 312.82 344.37 319.7C344.37 321.08 343.26 322.2 341.87 322.2C330.42 322.2 298.53 322.2 287.07 322.2C285.69 322.2 284.57 321.08 284.57 319.7C284.57 312.82 284.57 294.68 284.57 287.8C284.57 286.42 285.69 285.3 287.07 285.3C298.53 285.3 330.42 285.3 341.87 285.3Z" id="a5nXYJCTp"></path></defs><g><g><g><use xlink:href="#dRBKiY9YG" opacity="1" fill="#f3eeef" fill-opacity="1"></use></g><g><use xlink:href="#boFBL9eyU" opacity="1" fill="#4290d0" fill-opacity="1"></use></g><g><use xlink:href="#a5nXYJCTp" opacity="1" fill="#c9cad2" fill-opacity="1"></use></g></g></g></svg>