<svg width="64" height="64" xmlns="http://www.w3.org/2000/svg">

 <g>
  <title>background</title>
  <rect fill="none" id="canvas_background" height="66" width="66" y="-1" x="-1"/>
 </g>
 <g>
  <title>Layer 1</title>
  <g stroke="null" id="svg_1">
   <g stroke="null" id="svg_2">
    <path stroke="null" id="svg_3" fill="#000000" class="active-path" d="m62.010648,1.5l-60.021301,0c-0.546392,0 -0.989362,0.481972 -0.989362,1.076471l0,58.847068c0,0.594499 0.44297,1.076471 0.989362,1.076471l60.021301,0c0.546524,0 0.989362,-0.481972 0.989362,-1.076471l0,-11.482355c0,-0.594499 -0.442838,-1.076471 -0.989362,-1.076471s-0.989362,0.481972 -0.989362,1.076471l0,10.405884l-58.042577,0l0,-48.08236l58.042577,0l0,33.370593c0,0.594499 0.442838,1.076471 0.989362,1.076471s0.989362,-0.481972 0.989362,-1.076471l0,-43.05883c0,-0.594499 -0.442838,-1.076471 -0.989362,-1.076471zm-59.031939,2.152942l36.606398,0l0,6.458825l-36.606398,0l0,-6.458825zm38.585122,6.458825l0,-6.458825l19.457455,0l0,6.458825l-19.457455,0z"/>
    <path stroke="null" id="svg_4" fill="#000000" class="active-path" d="m52.760827,4.804954c-0.622966,0 -1.129841,0.677799 -1.129841,1.510836s0.506875,1.510836 1.129841,1.510836s1.129841,-0.677799 1.129841,-1.510836s-0.506875,-1.510836 -1.129841,-1.510836z"/>
    <path stroke="null" id="svg_5" fill="#000000" class="active-path" d="m47.111622,5.182663c-0.622966,0 -1.129841,0.677799 -1.129841,1.510836s0.506875,1.510836 1.129841,1.510836s1.129841,-0.677799 1.129841,-1.510836s-0.506875,-1.510836 -1.129841,-1.510836z"/>
    <path stroke="null" id="svg_6" fill="#000000" class="active-path" d="m58.268802,4.804954c-0.622966,0 -1.129841,0.677799 -1.129841,1.510836s0.506875,1.510836 1.129841,1.510836s1.129841,-0.677799 1.129841,-1.510836s-0.506875,-1.510836 -1.129841,-1.510836z"/>
    <path stroke="null" id="svg_7" fill="#000000" class="active-path" d="m21.09843,22.364853l7.36869,8.389423c0.35738,0.406885 0.936826,0.406885 1.294084,0c0.35738,-0.406885 0.35738,-1.066598 0,-1.473344l-8.013535,-9.123594c-0.356526,-0.405913 -0.934264,-0.407024 -1.291888,-0.0025l-5.401331,6.108003c-0.17265,0.195177 -0.269774,0.460507 -0.270262,0.737506s0.096025,0.542606 0.268065,0.738478l3.539514,4.029818c0.00122,0.001389 4.492446,5.114753 4.492446,5.114753c0.178629,0.203373 0.412897,0.305199 0.647042,0.305199s0.468413,-0.101687 0.647042,-0.305199c0.35738,-0.406885 0.35738,-1.066598 0,-1.473344l-0.30467,-0.346874l2.094132,-2.384217c0.35738,-0.406885 0.35738,-1.066598 0,-1.473344c-0.35738,-0.406885 -0.936826,-0.406885 -1.294084,0l-2.094132,2.384217l-2.245918,-2.557029l2.094132,-2.384217c0.35738,-0.406885 0.35738,-1.066598 0,-1.473344c-0.35738,-0.406885 -0.936826,-0.406885 -1.294084,0l-2.094132,2.384217l-2.243722,-2.554529l4.10261,-4.640076z"/>
    <path stroke="null" id="svg_8" fill="#000000" class="active-path" d="m34.006077,50.433517c0.000102,0.000143 5.893173,8.31883 5.893173,8.31883c0.143015,0.20188 0.336852,0.315231 0.539125,0.315231s0.396009,-0.113351 0.539125,-0.315231l4.484374,-6.330306c0.297718,-0.42026 0.297718,-1.101659 0,-1.521776l-6.683361,-9.434264c-0.29782,-0.42026 -0.78043,-0.42026 -1.078148,0c-0.297718,0.42026 -0.297718,1.101659 0,1.521776l6.144338,8.673376l-3.406327,4.808387l-1.868438,-2.637496l1.744533,-2.462734c0.297718,-0.42026 0.297718,-1.101659 0,-1.521776c-0.29782,-0.42026 -0.78043,-0.42026 -1.078148,0l-1.744533,2.462591l-1.868438,-2.637496l1.744635,-2.462591c0.297718,-0.42026 0.297718,-1.101659 0,-1.521776c-0.297718,-0.42026 -0.780329,-0.42026 -1.078148,0l-1.744533,2.462591l-0.251266,-0.354689c-0.29782,-0.42026 -0.78043,-0.42026 -1.078148,0c-0.297718,0.42026 -0.297718,1.101659 0,1.521776l0.790188,1.115577z"/>
    <path stroke="null" id="svg_9" fill="#000000" class="active-path" d="m19.762423,56.143545c0.087631,0 0.176146,-0.024789 0.259978,-0.075875l5.796907,-3.526133c0.002562,-0.001636 0.011749,-0.007172 0.011749,-0.007172c0.005654,-0.003397 0.011042,-0.007801 0.016608,-0.011451c0.012544,-0.008179 0.025088,-0.016358 0.037279,-0.025795c0.007244,-0.005537 0.014222,-0.011954 0.021289,-0.017994c0.011131,-0.009311 0.022349,-0.018371 0.033215,-0.028815c0.009187,-0.008808 0.017844,-0.018623 0.026766,-0.027934c0.008215,-0.008808 0.016696,-0.016987 0.024646,-0.026298c0.016784,-0.019629 0.033038,-0.040391 0.048409,-0.062412l14.315945,-20.39175c0.000088,-0.000126 1.685663,-2.401087 1.685663,-2.401087c0.568807,-0.810345 0.882142,-1.889211 0.882142,-3.037661c0.000088,-1.14845 -0.313246,-2.227316 -0.882142,-3.037661c-0.568896,-0.810345 -1.326305,-1.256664 -2.132564,-1.256664c-0.806348,0 -1.563668,0.446319 -2.132653,1.256664l-1.685045,2.400332c-0.000972,0.001384 -14.316387,20.392505 -14.316387,20.392505c-0.015459,0.021894 -0.029947,0.045047 -0.043727,0.068955c-0.006714,0.011702 -0.012632,0.024034 -0.018904,0.035987c-0.006449,0.012331 -0.013162,0.024285 -0.019169,0.03712c-0.00742,0.015855 -0.014046,0.032212 -0.020759,0.04857c-0.003975,0.009689 -0.008304,0.019126 -0.012014,0.029067c-0.006714,0.017742 -0.012632,0.035987 -0.018463,0.054233c-0.002473,0.007676 -0.005389,0.014974 -0.007774,0.022775l-0.003799,0.012583c-0.001325,0.004278 -2.476729,8.261365 -2.476729,8.261365c-0.10627,0.354463 -0.050529,0.765424 0.140811,1.037971c0.126853,0.180818 0.296285,0.276574 0.468721,0.276574zm16.796208,-28.274745l2.391129,3.405965l-13.378946,19.057198l-2.391129,-3.405965l13.378946,-19.057198zm2.154119,-3.068363c0.318546,-0.453869 0.743186,-0.703893 1.195565,-0.703893c0.45229,0 0.87693,0.249898 1.195565,0.703893c0.318546,0.453743 0.494074,1.058607 0.494074,1.702857c0,0.644375 -0.175439,1.249114 -0.494162,1.703108l-1.217031,1.733559l-2.391129,-3.405965l1.217119,-1.733559zm-16.245598,23.779847l1.942285,2.766623l-3.389877,2.061975l1.447593,-4.828599z"/>
   </g>
  </g>
 </g>
</svg>