<svg width="64" height="64" xmlns="http://www.w3.org/2000/svg">

 <g>
  <title>background</title>
  <rect fill="#ffffff" id="canvas_background" height="66" width="66" y="-1" x="-1"/>
 </g>
 <g>
  <title>Layer 1</title>
  <g stroke="null" id="svg_1">
   <g stroke="null" id="svg_2">
    <g stroke="null" id="svg_3">
     <g stroke="null" id="svg_4">
      <path stroke="#191919" id="svg_5" fill="#000000" class="active-path" d="m61.618355,1.275999l-58.779709,0c-0.601728,0 -1.088642,0.638016 -1.088642,1.426109l0,9.98423l0,28.526214l0,18.541984c0,0.78846 0.486914,1.426475 1.088642,1.426475l58.779709,0c0.601728,0 1.088642,-0.638016 1.088642,-1.426475l0,-18.541984l0,-28.526214l0,-9.98423c0,-0.788094 -0.486914,-1.426109 -1.088642,-1.426109zm-57.691346,12.836815l9.796665,0l0,25.673629l-9.796665,0l0,-25.673629zm56.602983,25.673629l-3.265648,0l0,-25.673629l3.265648,0l0,25.673629zm0,-28.526214l-4.354011,0c-0.601728,0 -1.088642,0.638016 -1.088642,1.426475l0,28.526214c0,0.78846 0.486914,1.426475 1.088642,1.426475l4.354011,0l0,15.6894l-56.602983,0l0,-0.000366l0,-15.6894l10.885307,0c0.601728,0 1.088642,-0.638016 1.088642,-1.426475l0,-28.526214c0,-0.78846 -0.486914,-1.426475 -1.088642,-1.426475l-10.885307,0l0,-7.131279l56.602983,0l0,7.131645z"/>
      <circle stroke="#191919" id="svg_6" fill="#000000" class="active-path" r="0.40557" cy="51.196782" cx="33.317003"/>
      <path stroke="#191919" id="svg_7" fill="#000000" class="active-path" d="m20.25469,42.639394l30.478357,0c0.601728,0 1.088642,-0.638016 1.088642,-1.426475l0,-28.52658c0,-0.788094 -0.486914,-1.426109 -1.088363,-1.426109l-30.478637,0c-0.601728,0 -1.088642,0.638016 -1.088642,1.426475l0,28.526214c0,0.78846 0.486914,1.426475 1.088642,1.426475zm1.088642,-28.52658l28.301352,0l0,25.673629l-28.301352,0l0,-25.673629z"/>
      <rect stroke="#191919" id="svg_8" fill="#000000" class="active-path" height="2.852585" width="3.265648" y="49.770673" x="20.25469"/>
      <rect stroke="#191919" id="svg_9" fill="#000000" class="active-path" height="2.852585" width="3.265648" y="49.770673" x="25.697344"/>
      <rect stroke="#191919" id="svg_10" fill="#000000" class="active-path" height="2.852585" width="3.265648" y="49.770673" x="37.671014"/>
      <rect stroke="#191919" id="svg_11" fill="#000000" class="active-path" height="2.852585" width="3.265648" y="49.770673" x="43.113668"/>
     </g>
    </g>
   </g>
  </g>
 </g>
</svg>